<?xml version="1.0" encoding="utf-8"?>
<!DOCTYPE svg PUBLIC "-//W3C//DTD SVG 1.1//EN" "http://www.w3.org/Graphics/SVG/1.1/DTD/svg11.dtd">
<svg version="1.1" id="图形" xmlns="http://www.w3.org/2000/svg" xmlns:xlink="http://www.w3.org/1999/xlink" x="0px" y="0px" width="1024px" height="1024px" viewBox="0 0 1024 1024" enable-background="new 0 0 1024 1024" xml:space="preserve">
  <path fill="#a9b7b7" d="M176.661601-5.172881C168.472798-13.644055 168.701706-27.149636 177.172881-35.338438 185.644056-43.527241 199.149636-43.298332 207.338438-34.827157L826.005105 605.172843C834.193907 613.644017 833.964998 627.149597 825.493824 635.338399 817.02265 643.527202 803.517069 643.298294 795.328267 634.827119L176.661601-5.172881ZM795.328267-34.827157C803.517069-43.298332 817.02265-43.527241 825.493824-35.338438 833.964998-27.149636 834.193907-13.644055 826.005105-5.172881L207.338438 634.827119C199.149636 643.298294 185.644056 643.527202 177.172881 635.338399 168.701706 627.149597 168.472798 613.644017 176.661601 605.172843L795.328267-34.827157Z" transform="translate(0, 812) scale(1, -1)"/>
</svg>
