<?xml version="1.0" encoding="utf-8"?>
<!DOCTYPE svg PUBLIC "-//W3C//DTD SVG 1.1//EN" "http://www.w3.org/Graphics/SVG/1.1/DTD/svg11.dtd">
<svg version="1.1" id="图形" xmlns="http://www.w3.org/2000/svg" xmlns:xlink="http://www.w3.org/1999/xlink" x="0px" y="0px" width="1024px" height="1024px" viewBox="0 0 1024 1024" enable-background="new 0 0 1024 1024" xml:space="preserve">
  <path fill="#fff" d="M355.327216 325.888624 469.035978 325.888624c7.851828 0 14.204513 5.711072 14.204513 12.777001s-6.352685 12.777001-14.204513 12.777001L355.327216 351.442626c-7.851828 0-14.204513-5.711072-14.204513-12.777001S347.475388 325.888624 355.327216 325.888624zM355.327216 402.622262 469.035978 402.622262c7.851828 0 14.204513 5.734608 14.204513 12.777001 0 7.090489-6.352685 12.800537-14.204513 12.800537L355.327216 428.199801c-7.851828 0-14.204513-5.710049-14.204513-12.800537C341.122703 408.35687 347.475388 402.622262 355.327216 402.622262zM355.327216 479.355901 469.035978 479.355901c7.851828 0 14.204513 5.734608 14.204513 12.800537 0 7.066953-6.352685 12.801561-14.204513 12.801561L355.327216 504.957998c-7.851828 0-14.204513-5.734608-14.204513-12.801561C341.122703 485.090509 347.475388 479.355901 355.327216 479.355901zM525.87859 504.957998l142.141324 0 0-179.069375-142.141324 0 0 179.069375ZM355.327216 172.373251l312.692698 0c7.851828 0 14.204513 5.710049 14.204513 12.801561 0 7.064906-6.352685 12.799514-14.204513 12.799514L355.327216 197.974325c-7.851828 0-14.204513-5.734608-14.204513-12.799514C341.122703 178.0833 347.475388 172.373251 355.327216 172.373251zM355.327216 249.131449l312.692698 0c7.851828 0 14.204513 5.710049 14.204513 12.799514 0 7.04444-6.352685 12.778024-14.204513 12.778024L355.327216 274.708987c-7.851828 0-14.204513-5.734608-14.204513-12.778024C341.122703 254.841497 347.475388 249.131449 355.327216 249.131449zM511.674077 811.939625c-282.59317 0-511.653099-229.082442-511.653099-511.653099s229.059929-511.653099 511.653099-511.653099c282.570657 0 511.653099 229.082442 511.653099 511.653099S794.243711 811.939625 511.674077 811.939625zM767.500627 6.104413l-511.653099 0L255.847527 594.492174l511.653099 0L767.500627 6.104413zM355.327216 95.615053l312.692698 0c7.851828 0 14.204513 5.734608 14.204513 12.801561s-6.352685 12.801561-14.204513 12.801561L355.327216 121.218174c-7.851828 0-14.204513-5.734608-14.204513-12.801561S347.475388 95.615053 355.327216 95.615053z" transform="translate(0, 812) scale(1, -1)"/>
</svg>
