<?xml version="1.0" encoding="utf-8"?>
<!DOCTYPE svg PUBLIC "-//W3C//DTD SVG 1.1//EN" "http://www.w3.org/Graphics/SVG/1.1/DTD/svg11.dtd">
<svg version="1.1" id="图形" xmlns="http://www.w3.org/2000/svg" xmlns:xlink="http://www.w3.org/1999/xlink" x="0px" y="0px" width="1024px" height="1024px" viewBox="0 0 1024 1024" enable-background="new 0 0 1024 1024" xml:space="preserve">
  <path fill="#fff" d="M742.793922 310.31902c-37.302581 7.258311-19.153222 27.39493-19.153222 27.39493s36.499285 60.337203-7.225565 104.204293c-54.219879 54.329373-185.940876-6.912433-185.940876-6.912433-50.319036-15.652492-36.95875 7.142677-29.847795 45.936215 0 45.705971-15.626909 123.060757-149.640112 77.370135C217.115388 512.374922 102.139773 351.426253 102.139773 351.426253 22.20114 244.475406 32.809755 161.816824 32.809755 161.816824 52.765249-20.662207 246.159888-70.754069 396.574642-82.610094c158.243047-12.447497 371.851053 54.689576 436.59359 192.612832C897.938398 248.155215 780.239765 302.831488 742.793922 310.31902zM408.302755-31.155189c-157.124574-7.358595-284.114826 71.620178-284.114826 176.73112 0 105.223506 126.990253 189.609429 284.114826 196.86774 157.182902 7.258311 284.428981-57.679677 284.428981-162.687266C692.731736 74.659789 565.484633-23.997162 408.302755-31.155189zM376.934327 273.136166c-157.983127-18.541285-139.747811-166.926824-139.747811-166.926824s-1.605567-46.986127 42.37818-70.918189c92.439342-50.205449 187.631378-19.805068 235.743142 42.459021C563.419602 140.043938 535.206026 291.548514 376.934327 273.136166zM337.080643 64.870842c-29.475312-3.464915-53.273321 13.582343-53.273321 38.33305 0 24.636097 21.131273 50.434669 50.635237 53.526077 33.889855 3.232624 55.968709-16.343223 55.968709-41.092907C390.411269 91.000965 366.49865 68.220123 337.080643 64.870842zM430.2363 144.425735c-10.005888-7.487531-22.278399-6.452969-27.554566 2.53166-5.504364 8.751315-3.440355 22.795169 6.652514 30.167067 11.697413 8.741082 23.882943 6.222725 29.15911-2.542916C443.798177 165.612267 440.013991 152.144534 430.2363 144.425735zM819.751664 374.567299c12.728906 0 23.566742 9.44307 25.3739 21.760606 0.230244 0.919952 0.344854 1.724271 0.344854 2.759857 19.296485 173.956937-142.187373 144.017044-142.187373 144.017044-14.335497 0-25.805736-11.627828-25.805736-26.130124 0-14.273075 11.470239-25.900903 25.805736-25.900903 116.009154 25.670659 90.406033-90.607624 90.406033-90.607624C793.688055 386.079494 805.356816 374.567299 819.751664 374.567299zM800.94125 678.196575c-55.855122 13.108552-113.255437 1.811252-129.340787-1.279133-1.233084-0.115634-2.409886-1.294482-3.555989-1.523703-0.545422-0.115634-0.889253-0.689708-0.889253-0.689708-15.885805-4.499477-27.469632-19.216667-27.469632-36.608779 0-20.726044 16.745383-37.772278 37.676088-37.772278 0 0 20.300348 2.730181 34.090423 8.135284 13.676487 5.519714 129.283482 4.110621 186.743148-92.590791 31.311123-70.571289 13.762445-117.800963 11.583826-125.389802 0 0-7.454786-18.340717-7.454786-36.391838 0-20.842701 16.744359-33.935903 37.502126-33.935903 17.375739 0 31.94148 2.373047 36.213783 31.807427l0.230244 0C1037.947152 558.009262 900.834354 654.827331 800.94125 678.196575z" transform="translate(0, 812) scale(1, -1)"/>
</svg>
